<?xml version="1.0" encoding="UTF-8" standalone="no"?>
<svg
   xmlns:dc="http://purl.org/dc/elements/1.1/"
   xmlns:cc="http://creativecommons.org/ns#"
   xmlns:rdf="http://www.w3.org/1999/02/22-rdf-syntax-ns#"
   xmlns:svg="http://www.w3.org/2000/svg"
   xmlns="http://www.w3.org/2000/svg"
   xmlns:sodipodi="http://sodipodi.sourceforge.net/DTD/sodipodi-0.dtd"
   xmlns:inkscape="http://www.inkscape.org/namespaces/inkscape"
   style="font-style:normal;font-weight:normal;font-size:12px;font-family:Dialog;color-interpolation:auto;fill:#000000;fill-opacity:1;stroke:#000000;stroke-width:1;stroke-linecap:square;stroke-linejoin:miter;stroke-miterlimit:10;stroke-dasharray:none;stroke-dashoffset:0;stroke-opacity:1;color-rendering:auto;image-rendering:auto;shape-rendering:auto;text-rendering:auto"
   width="420mm"
   height="297mm"
   version="1.1"
   id="svg273"
   sodipodi:docname="shortpath5_fixed.svg"
   inkscape:export-filename="/Users/clark/code/ckampfe.elle/shortpath5.png"
   inkscape:export-xdpi="96"
   inkscape:export-ydpi="96"
   inkscape:version="0.92.2 5c3e80d, 2017-08-06">
  <metadata
     id="metadata277">
    <rdf:RDF>
      <cc:Work
         rdf:about="">
        <dc:format>image/svg+xml</dc:format>
        <dc:type
           rdf:resource="http://purl.org/dc/dcmitype/StillImage" />
        <dc:title></dc:title>
      </cc:Work>
    </rdf:RDF>
  </metadata>
  <sodipodi:namedview
     pagecolor="#ffffff"
     bordercolor="#666666"
     borderopacity="1"
     objecttolerance="10"
     gridtolerance="10"
     guidetolerance="10"
     inkscape:pageopacity="0"
     inkscape:pageshadow="2"
     inkscape:window-width="1680"
     inkscape:window-height="1006"
     id="namedview275"
     showgrid="false"
     units="mm"
     inkscape:zoom="0.70644641"
     inkscape:cx="764.24182"
     inkscape:cy="504.63842"
     inkscape:window-x="0"
     inkscape:window-y="1"
     inkscape:window-maximized="1"
     inkscape:current-layer="svg273"
     inkscape:document-units="mm" />
  <!--Generated by the Batik Graphics2D SVG Generator-->
  <defs
     id="genericDefs">
    <inkscape:path-effect
       effect="fill_between_strokes"
       id="path-effect3976"
       is_visible="true"
       linkedpath=""
       secondpath=""
       reversesecond="false" />
    <inkscape:path-effect
       effect="envelope"
       id="path-effect285"
       is_visible="true"
       yy="true"
       xx="true"
       bendpath1="M 291.57529,213.1909 H 1122.4215"
       bendpath2="M 1122.4215,213.1909 V 807.8928"
       bendpath3="M 291.57529,807.8928 H 1122.4215"
       bendpath4="M 291.57529,213.1909 V 807.8928" />
    <inkscape:path-effect
       effect="spiro"
       id="path-effect283"
       is_visible="true" />
    <inkscape:path-effect
       effect="taper_stroke"
       id="path-effect281"
       is_visible="true"
       stroke_width="1.7"
       attach_start="0.2"
       end_offset="0.2"
       smoothing="0.5"
       jointype="extrapolated"
       miter_limit="100" />
    <inkscape:path-effect
       effect="bspline"
       id="path-effect279"
       is_visible="true"
       weight="33.333333"
       steps="2"
       helper_size="0"
       apply_no_weight="true"
       apply_with_weight="true"
       only_selected="false" />
  </defs>
  <g
     id="g271"
     transform="matrix(1.4481548,0,0,1.4481548,-230.14234,-178.08379)"
     style="fill:#000000;fill-opacity:0.24705882">
    <g
       style="fill:#000000;stroke:#c8c8c8;fill-opacity:0.24705882"
       id="g5">
      <path
         style="stroke:none;fill:#000000;fill-opacity:0.24705882"
         d="m 372.6977,247.0854 c 6.7573,12.3197 30.0754,85.7852 41.6825,104.7573"
         id="path3"
         inkscape:connector-curvature="0" />
    </g>
    <g
       style="fill:#000000;stroke:#c8c8c8;fill-opacity:0.24705882"
       id="g269">
      <path
         style="stroke:none;fill:#000000;fill-opacity:0.24705882"
         d="m 414.3802,351.8427 c -22.5414,1.301 -88.8572,13.4696 -104.7074,17.3006"
         id="path7"
         inkscape:connector-curvature="0" />
      <path
         style="stroke:none;fill:#000000;fill-opacity:0.24705882"
         d="m 309.6728,369.1433 c -5.547,-18.0001 -19.9065,-83.9982 -14.0835,-94.372"
         id="path9"
         inkscape:connector-curvature="0" />
      <path
         style="stroke:none;fill:#000000;fill-opacity:0.24705882"
         d="m 295.5893,274.7713 c -5.1124,5.7735 -6.8259,83.364 4.4315,103.8833"
         id="path11"
         inkscape:connector-curvature="0" />
      <path
         style="stroke:none;fill:#000000;fill-opacity:0.24705882"
         d="m 300.0208,378.6546 c -2.3903,-1.0931 -4.0567,-1.7781 -1.3948,9.2382"
         id="path13"
         inkscape:connector-curvature="0" />
      <path
         style="stroke:none;fill:#000000;fill-opacity:0.24705882"
         d="m 298.626,387.8928 c 15.098,-14.6101 102.263,-43.1446 133.7954,-45.2797"
         id="path15"
         inkscape:connector-curvature="0" />
      <path
         style="stroke:none;fill:#000000;fill-opacity:0.24705882"
         d="M 432.4214,342.6131 C 400.9423,313.6922 317.2889,230.3838 296.5374,213.1909"
         id="path17"
         inkscape:connector-curvature="0" />
      <path
         style="stroke:none;fill:#000000;fill-opacity:0.24705882"
         d="m 296.5374,213.1909 c 9.8093,24.9881 70.7212,130.1533 86.2184,167.7817"
         id="path19"
         inkscape:connector-curvature="0" />
      <path
         style="stroke:none;fill:#000000;fill-opacity:0.24705882"
         d="M 382.7558,380.9726 C 367.2394,354.1299 326.3687,245.4355 318.6951,223.8452"
         id="path21"
         inkscape:connector-curvature="0" />
      <path
         style="stroke:none;fill:#000000;fill-opacity:0.24705882"
         d="m 318.6951,223.8452 c 8.2207,16.8529 88.2585,87.8257 112.199,105.6539"
         id="path23"
         inkscape:connector-curvature="0" />
      <path
         style="stroke:none;fill:#000000;fill-opacity:0.24705882"
         d="m 430.8941,329.4991 c -8.1585,-6.7956 -36.7962,-11.8322 -38.9479,-8.9046"
         id="path25"
         inkscape:connector-curvature="0" />
      <path
         style="stroke:none;fill:#000000;fill-opacity:0.24705882"
         d="m 660.8941,329.4991 c -17.094,-0.9857 -50.8114,42.6334 -48.1383,51.4735"
         id="path27"
         inkscape:connector-curvature="0" />
      <path
         style="stroke:none;fill:#000000;fill-opacity:0.24705882"
         d="M 612.7558,380.9726 C 597.7786,353.2714 532.8096,291.6662 525.5893,274.7713"
         id="path29"
         inkscape:connector-curvature="0" />
      <path
         style="stroke:none;fill:#000000;fill-opacity:0.24705882"
         d="m 525.5893,274.7713 c -6.7616,5.0399 7.6344,73.3274 14.0835,94.372"
         id="path31"
         inkscape:connector-curvature="0" />
      <path
         style="stroke:none;fill:#000000;fill-opacity:0.24705882"
         d="m 539.6728,369.1433 c -6.6577,-9.9169 -11.8383,7.2702 -9.652,9.5113"
         id="path33"
         inkscape:connector-curvature="0" />
      <path
         style="stroke:none;fill:#000000;fill-opacity:0.24705882"
         d="m 530.0208,378.6546 c 21.284,-10.7463 100.5175,-33.3632 132.4006,-36.0415"
         id="path35"
         inkscape:connector-curvature="0" />
      <path
         style="stroke:none;fill:#000000;fill-opacity:0.24705882"
         d="M 662.4214,342.6131 C 640.9157,317.5709 607.0328,261.0523 602.6978,247.0854"
         id="path37"
         inkscape:connector-curvature="0" />
      <path
         style="stroke:none;fill:#000000;fill-opacity:0.24705882"
         d="m 602.6978,247.0854 c -2.0791,13.6384 30.5184,84.5822 41.6824,104.7573"
         id="path39"
         inkscape:connector-curvature="0" />
      <path
         style="stroke:none;fill:#000000;fill-opacity:0.24705882"
         d="m 644.3802,351.8427 c -24.5074,4.2834 -98.5941,29.8853 -115.7542,36.0501"
         id="path41"
         inkscape:connector-curvature="0" />
      <path
         style="stroke:none;fill:#000000;fill-opacity:0.24705882"
         d="m 528.626,387.8928 c -4.2273,-36.172 5.3651,-140.9714 20.0691,-164.0476"
         id="path43"
         inkscape:connector-curvature="0" />
      <path
         style="stroke:none;fill:#000000;fill-opacity:0.24705882"
         d="m 548.6951,223.8452 c 1.7237,10.4704 57.8621,76.9598 73.2511,96.7493"
         id="path45"
         inkscape:connector-curvature="0" />
      <path
         style="stroke:none;fill:#000000;fill-opacity:0.24705882"
         d="M 621.9462,320.5945 C 596.8938,299.4128 540.4348,223.7422 526.5374,213.1909"
         id="path47"
         inkscape:connector-curvature="0" />
      <path
         style="stroke:none;fill:#000000;fill-opacity:0.24705882"
         d="m 874.3802,351.8427 c -6.5344,-13.4302 12.9266,-28.9839 16.5139,-22.3436"
         id="path49"
         inkscape:connector-curvature="0" />
      <path
         style="stroke:none;fill:#000000;fill-opacity:0.24705882"
         d="M 890.8941,329.4991 C 860.0162,300.4788 776.3672,228.7491 756.5374,213.1909"
         id="path51"
         inkscape:connector-curvature="0" />
      <path
         style="stroke:none;fill:#000000;fill-opacity:0.24705882"
         d="m 756.5374,213.1909 c 15.195,9.9406 78.2528,84.4529 95.4088,107.4036"
         id="path53"
         inkscape:connector-curvature="0" />
      <path
         style="stroke:none;fill:#000000;fill-opacity:0.24705882"
         d="m 851.9462,320.5945 c -21.5519,10.8309 -84.5383,46.8193 -93.3202,67.2983"
         id="path55"
         inkscape:connector-curvature="0" />
      <path
         style="stroke:none;fill:#000000;fill-opacity:0.24705882"
         d="m 758.626,387.8928 c -11.1969,-10.6823 0.2281,-13.1942 1.3948,-9.2382"
         id="path57"
         inkscape:connector-curvature="0" />
      <path
         style="stroke:none;fill:#000000;fill-opacity:0.24705882"
         d="m 760.0208,378.6546 c 17.3413,-13.3589 101.1875,-39.0525 132.4006,-36.0415"
         id="path59"
         inkscape:connector-curvature="0" />
      <path
         style="stroke:none;fill:#000000;fill-opacity:0.24705882"
         d="M 892.4214,342.6131 C 873.2413,320.8887 836.4562,261.8345 832.6978,247.0854"
         id="path61"
         inkscape:connector-curvature="0" />
      <path
         style="stroke:none;fill:#000000;fill-opacity:0.24705882"
         d="m 832.6978,247.0854 c -17.0221,-1.0006 -68.1203,20.0784 -77.1085,27.6859"
         id="path63"
         inkscape:connector-curvature="0" />
      <path
         style="stroke:none;fill:#000000;fill-opacity:0.24705882"
         d="m 755.5893,274.7713 c 2.5025,-14.6445 8.2453,-47.3064 23.1058,-50.9261"
         id="path65"
         inkscape:connector-curvature="0" />
      <path
         style="stroke:none;fill:#000000;fill-opacity:0.24705882"
         d="m 778.6951,223.8452 c -7.6104,21.1667 -13.132,111.9987 -9.0223,145.2981"
         id="path67"
         inkscape:connector-curvature="0" />
      <path
         style="stroke:none;fill:#000000;fill-opacity:0.24705882"
         d="m 769.6728,369.1433 c 4.5553,0.9319 58.064,1.1432 73.083,11.8293"
         id="path69"
         inkscape:connector-curvature="0" />
      <path
         style="stroke:none;fill:#000000;fill-opacity:0.24705882"
         d="m 1104.3801,351.8427 c -0.5517,-12.5771 14.7886,-12.6541 18.0414,-9.2296"
         id="path71"
         inkscape:connector-curvature="0" />
      <path
         style="stroke:none;fill:#000000;fill-opacity:0.24705882"
         d="M 1122.4215,342.6131 C 1090.832,340.4947 1000.168,379.6403 988.626,387.8928"
         id="path73"
         inkscape:connector-curvature="0" />
      <path
         style="stroke:none;fill:#000000;fill-opacity:0.24705882"
         d="m 988.626,387.8928 c 5.2242,-7.6624 65.8602,-6.5241 84.1299,-6.9202"
         id="path75"
         inkscape:connector-curvature="0" />
      <path
         style="stroke:none;fill:#000000;fill-opacity:0.24705882"
         d="m 1072.7559,380.9726 c 0.7021,-10.8537 4.6211,-52.6955 9.1903,-60.3781"
         id="path77"
         inkscape:connector-curvature="0" />
      <path
         style="stroke:none;fill:#000000;fill-opacity:0.24705882"
         d="m 1081.9462,320.5945 c -16.2991,-26.1507 -67.7487,-87.0083 -73.2511,-96.7493"
         id="path79"
         inkscape:connector-curvature="0" />
      <path
         style="stroke:none;fill:#000000;fill-opacity:0.24705882"
         d="m 1008.6951,223.8452 c -10.5647,6.3346 -23.5457,32.8502 -23.1058,50.9261"
         id="path81"
         inkscape:connector-curvature="0" />
      <path
         style="stroke:none;fill:#000000;fill-opacity:0.24705882"
         d="m 985.5893,274.7713 c 7.6537,-15.5426 62.2883,-33.3572 77.1085,-27.6859"
         id="path83"
         inkscape:connector-curvature="0" />
      <path
         style="stroke:none;fill:#000000;fill-opacity:0.24705882"
         d="m 1062.6978,247.0854 c 0.2283,11.4566 48.31,67.4987 58.1962,82.4137"
         id="path85"
         inkscape:connector-curvature="0" />
      <path
         style="stroke:none;fill:#000000;fill-opacity:0.24705882"
         d="m 1120.894,329.4991 c -32.3393,-1.8804 -118.213,33.4494 -130.8732,49.1555"
         id="path87"
         inkscape:connector-curvature="0" />
      <path
         style="stroke:none;fill:#000000;fill-opacity:0.24705882"
         d="m 990.0208,378.6546 c -5.1901,-11.6156 2.3687,-16.2932 9.652,-9.5113"
         id="path89"
         inkscape:connector-curvature="0" />
      <path
         style="stroke:none;fill:#000000;fill-opacity:0.24705882"
         d="M 999.6728,369.1433 C 989.0406,332.8184 987.853,237.8111 986.5374,213.1909"
         id="path91"
         inkscape:connector-curvature="0" />
      <path
         style="stroke:none;fill:#000000;fill-opacity:0.24705882"
         d="m 300.0208,588.6546 c -10.2345,-8.619 -11.7213,0.5941 -1.3948,9.2382"
         id="path93"
         inkscape:connector-curvature="0" />
      <path
         style="stroke:none;fill:#000000;fill-opacity:0.24705882"
         d="m 298.626,597.8928 c 13.9111,-19.3197 105.3637,-59.4169 132.2681,-58.3937"
         id="path95"
         inkscape:connector-curvature="0" />
      <path
         style="stroke:none;fill:#000000;fill-opacity:0.24705882"
         d="m 430.8941,539.4991 c -11.7109,-7.3359 -22.9527,13.2265 -16.5139,22.3436"
         id="path97"
         inkscape:connector-curvature="0" />
      <path
         style="stroke:none;fill:#000000;fill-opacity:0.24705882"
         d="m 414.3802,561.8427 c -9.308,-2.3313 -29.6633,22.7175 -31.6244,29.13"
         id="path99"
         inkscape:connector-curvature="0" />
      <path
         style="stroke:none;fill:#000000;fill-opacity:0.24705882"
         d="m 382.7558,590.9727 c 6.547,-16.8973 32.4288,-32.3301 49.6656,-38.3596"
         id="path101"
         inkscape:connector-curvature="0" />
      <path
         style="stroke:none;fill:#000000;fill-opacity:0.24705882"
         d="M 432.4214,552.6131 C 403.5652,554.25 325.638,572.9457 309.6728,579.1433"
         id="path103"
         inkscape:connector-curvature="0" />
      <path
         style="stroke:none;fill:#000000;fill-opacity:0.24705882"
         d="m 309.6728,579.1433 c -5.5371,-27.094 -20.2433,-86.523 -14.0835,-94.372"
         id="path105"
         inkscape:connector-curvature="0" />
      <path
         style="stroke:none;fill:#000000;fill-opacity:0.24705882"
         d="m 295.5893,484.7713 c -5.598,-12.8575 8.6199,-51.9714 23.1058,-50.9261"
         id="path107"
         inkscape:connector-curvature="0" />
      <path
         style="stroke:none;fill:#000000;fill-opacity:0.24705882"
         d="m 318.6951,433.8452 c 3.932,15.4984 51.5135,71.9553 73.2511,96.7493"
         id="path109"
         inkscape:connector-curvature="0" />
      <path
         style="stroke:none;fill:#000000;fill-opacity:0.24705882"
         d="m 391.9462,530.5945 c -23.198,-24.7749 -85.2376,-95.637 -95.4088,-107.4036"
         id="path111"
         inkscape:connector-curvature="0" />
      <path
         style="stroke:none;fill:#000000;fill-opacity:0.24705882"
         d="m 296.5374,423.1909 c 7.6008,-0.5334 62.8935,20.3389 76.1603,33.8945"
         id="path113"
         inkscape:connector-curvature="0" />
      <path
         style="stroke:none;fill:#000000;fill-opacity:0.24705882"
         d="m 548.6951,433.8452 c 6.4986,-6.8238 36.8309,15.1539 54.0027,23.2402"
         id="path115"
         inkscape:connector-curvature="0" />
      <path
         style="stroke:none;fill:#000000;fill-opacity:0.24705882"
         d="m 602.6978,457.0854 c 2.0852,3.184 42.6301,57.265 58.1963,82.4137"
         id="path117"
         inkscape:connector-curvature="0" />
      <path
         style="stroke:none;fill:#000000;fill-opacity:0.24705882"
         d="m 660.8941,539.4991 c -1.6803,1.4902 -1.3957,5.335 1.5273,13.114"
         id="path119"
         inkscape:connector-curvature="0" />
      <path
         style="stroke:none;fill:#000000;fill-opacity:0.24705882"
         d="m 662.4214,552.6131 c -19.0051,1.2073 -44.813,27.4028 -49.6656,38.3596"
         id="path121"
         inkscape:connector-curvature="0" />
      <path
         style="stroke:none;fill:#000000;fill-opacity:0.24705882"
         d="m 612.7558,590.9727 c -16.575,-9.4359 -61.417,-12.9332 -73.083,-11.8294"
         id="path123"
         inkscape:connector-curvature="0" />
      <path
         style="stroke:none;fill:#000000;fill-opacity:0.24705882"
         d="M 539.6728,579.1433 C 530.9473,547.8296 519.0953,437.946 526.5374,423.1909"
         id="path125"
         inkscape:connector-curvature="0" />
      <path
         style="stroke:none;fill:#000000;fill-opacity:0.24705882"
         d="m 526.5374,423.1909 c -1.563,7.9577 -2.6232,39.7028 -0.9481,61.5804"
         id="path127"
         inkscape:connector-curvature="0" />
      <path
         style="stroke:none;fill:#000000;fill-opacity:0.24705882"
         d="m 525.5893,484.7713 c 14.32,1.2846 98.6133,54.4939 118.7909,77.0714"
         id="path129"
         inkscape:connector-curvature="0" />
      <path
         style="stroke:none;fill:#000000;fill-opacity:0.24705882"
         d="m 644.3802,561.8427 c -27.2431,-5.7322 -105.0029,21.7449 -114.3594,26.8119"
         id="path131"
         inkscape:connector-curvature="0" />
      <path
         style="stroke:none;fill:#000000;fill-opacity:0.24705882"
         d="m 530.0208,588.6546 c -8.9371,0.9135 -7.9569,-2.7872 -1.3948,9.2382"
         id="path133"
         inkscape:connector-curvature="0" />
      <path
         style="stroke:none;fill:#000000;fill-opacity:0.24705882"
         d="m 528.626,597.8928 c 12.8683,-22.5705 73.8037,-66.2756 93.3202,-67.2983"
         id="path135"
         inkscape:connector-curvature="0" />
      <path
         style="stroke:none;fill:#000000;fill-opacity:0.24705882"
         d="m 756.5374,423.1909 c -9.5746,2.9476 -3.925,42.975 -0.9481,61.5804"
         id="path137"
         inkscape:connector-curvature="0" />
      <path
         style="stroke:none;fill:#000000;fill-opacity:0.24705882"
         d="m 755.5893,484.7713 c 10.9682,7.9096 65.5578,85.8724 87.1665,106.2014"
         id="path139"
         inkscape:connector-curvature="0" />
      <path
         style="stroke:none;fill:#000000;fill-opacity:0.24705882"
         d="m 842.7558,590.9727 c -24.2444,-1.3125 -69.658,-5.3197 -82.735,-2.3181"
         id="path141"
         inkscape:connector-curvature="0" />
      <path
         style="stroke:none;fill:#000000;fill-opacity:0.24705882"
         d="m 760.0208,588.6546 c 11.6404,-13.209 91.2272,-27.8965 114.3594,-26.8119"
         id="path143"
         inkscape:connector-curvature="0" />
      <path
         style="stroke:none;fill:#000000;fill-opacity:0.24705882"
         d="m 874.3802,561.8427 c 1.3367,-10.5482 8.7624,-14.9546 18.0412,-9.2296"
         id="path145"
         inkscape:connector-curvature="0" />
      <path
         style="stroke:none;fill:#000000;fill-opacity:0.24705882"
         d="M 892.4214,552.6131 C 872.044,527.8984 836.3069,462.1596 832.6978,457.0854"
         id="path147"
         inkscape:connector-curvature="0" />
      <path
         style="stroke:none;fill:#000000;fill-opacity:0.24705882"
         d="m 832.6978,457.0854 c -15.8573,-14.777 -52.8442,-20.824 -54.0027,-23.2402"
         id="path149"
         inkscape:connector-curvature="0" />
      <path
         style="stroke:none;fill:#000000;fill-opacity:0.24705882"
         d="m 778.6951,433.8452 c 8.4643,8.4006 57.0929,75.4498 73.2511,96.7493"
         id="path151"
         inkscape:connector-curvature="0" />
      <path
         style="stroke:none;fill:#000000;fill-opacity:0.24705882"
         d="m 851.9462,530.5945 c -3.1397,0.0982 30.1416,3.7452 38.9479,8.9046"
         id="path153"
         inkscape:connector-curvature="0" />
      <path
         style="stroke:none;fill:#000000;fill-opacity:0.24705882"
         d="m 890.8941,539.4991 c -30.6228,-0.5282 -109.6423,23.205 -121.2213,39.6442"
         id="path155"
         inkscape:connector-curvature="0" />
      <path
         style="stroke:none;fill:#000000;fill-opacity:0.24705882"
         d="m 769.6728,579.1433 c -4.0313,-6.2821 -9.4856,11.0091 -11.0468,18.7495"
         id="path157"
         inkscape:connector-curvature="0" />
      <path
         style="stroke:none;fill:#000000;fill-opacity:0.24705882"
         d="m 988.626,597.8928 c -1.0058,-39.7721 -9.6773,-155.9331 -2.0886,-174.7019"
         id="path159"
         inkscape:connector-curvature="0" />
      <path
         style="stroke:none;fill:#000000;fill-opacity:0.24705882"
         d="m 986.5374,423.1909 c -7.3232,-1.1519 -5.6559,44.2446 -0.9481,61.5804"
         id="path161"
         inkscape:connector-curvature="0" />
      <path
         style="stroke:none;fill:#000000;fill-opacity:0.24705882"
         d="m 985.5893,484.7713 c -0.0822,-9.8227 15.5059,-51.6581 23.1058,-50.9261"
         id="path163"
         inkscape:connector-curvature="0" />
      <path
         style="stroke:none;fill:#000000;fill-opacity:0.24705882"
         d="m 1008.6951,433.8452 c 1.6529,-4.5139 34.0562,13.8255 54.0027,23.2402"
         id="path165"
         inkscape:connector-curvature="0" />
      <path
         style="stroke:none;fill:#000000;fill-opacity:0.24705882"
         d="m 1062.6978,457.0854 c 5.8504,10.4354 41.9582,73.2011 59.7237,95.5277"
         id="path167"
         inkscape:connector-curvature="0" />
      <path
         style="stroke:none;fill:#000000;fill-opacity:0.24705882"
         d="m 1122.4215,552.6131 c -4.0001,-0.3822 -19.0019,3.6151 -18.0414,9.2296"
         id="path169"
         inkscape:connector-curvature="0" />
      <path
         style="stroke:none;fill:#000000;fill-opacity:0.24705882"
         d="m 1104.3801,561.8427 c 2.699,-6.8205 3.5554,-25.4173 16.5139,-22.3436"
         id="path171"
         inkscape:connector-curvature="0" />
      <path
         style="stroke:none;fill:#000000;fill-opacity:0.24705882"
         d="m 1120.894,539.4991 c -14.6771,4.249 -50.7006,33.1565 -48.1381,51.4736"
         id="path173"
         inkscape:connector-curvature="0" />
      <path
         style="stroke:none;fill:#000000;fill-opacity:0.24705882"
         d="m 1072.7559,590.9727 c -22.7803,-9.8771 -70.1831,-14.9866 -73.0831,-11.8294"
         id="path175"
         inkscape:connector-curvature="0" />
      <path
         style="stroke:none;fill:#000000;fill-opacity:0.24705882"
         d="m 999.6728,579.1433 c 5.9699,-18.6979 57.3591,-40.6785 82.2734,-48.5488"
         id="path177"
         inkscape:connector-curvature="0" />
      <path
         style="stroke:none;fill:#000000;fill-opacity:0.24705882"
         d="m 1081.9462,530.5945 c -18.9799,8.2367 -84.5645,41.6904 -91.9254,58.0601"
         id="path179"
         inkscape:connector-curvature="0" />
      <path
         style="stroke:none;fill:#000000;fill-opacity:0.24705882"
         d="m 372.6977,667.0854 c -17.0538,18.9159 -66.3188,102.4804 -72.6769,131.5692"
         id="path181"
         inkscape:connector-curvature="0" />
      <path
         style="stroke:none;fill:#000000;fill-opacity:0.24705882"
         d="m 300.0208,798.6546 c 21.1538,-9.2635 109.4205,-35.2138 132.4006,-36.0415"
         id="path183"
         inkscape:connector-curvature="0" />
      <path
         style="stroke:none;fill:#000000;fill-opacity:0.24705882"
         d="m 432.4214,762.6131 c -9.4227,-5.8557 -3.2941,-15.4728 -1.5273,-13.114"
         id="path185"
         inkscape:connector-curvature="0" />
      <path
         style="stroke:none;fill:#000000;fill-opacity:0.24705882"
         d="m 430.8941,749.4991 c -8.2244,1.1921 -17.0539,13.4592 -16.5139,22.3436"
         id="path187"
         inkscape:connector-curvature="0" />
      <path
         style="stroke:none;fill:#000000;fill-opacity:0.24705882"
         d="m 414.3802,771.8427 c -12.7804,-11.9634 -20.6498,-32.2693 -22.434,-31.2482"
         id="path189"
         inkscape:connector-curvature="0" />
      <path
         style="stroke:none;fill:#000000;fill-opacity:0.24705882"
         d="m 391.9462,740.5945 c -11.1429,5.9917 -19.0099,45.6131 -9.1904,60.3782"
         id="path191"
         inkscape:connector-curvature="0" />
      <path
         style="stroke:none;fill:#000000;fill-opacity:0.24705882"
         d="m 382.7558,800.9727 c -22.0698,-8.6644 -76.2521,-3.7176 -84.1298,6.9201"
         id="path193"
         inkscape:connector-curvature="0" />
      <path
         style="stroke:none;fill:#000000;fill-opacity:0.24705882"
         d="m 298.626,807.8928 c -2.3953,-4.5094 -0.6315,-23.7581 11.0468,-18.7495"
         id="path195"
         inkscape:connector-curvature="0" />
      <path
         style="stroke:none;fill:#000000;fill-opacity:0.24705882"
         d="M 309.6728,789.1433 C 299.4536,768.4132 296.8527,702.766 295.5893,694.7713"
         id="path197"
         inkscape:connector-curvature="0" />
      <path
         style="stroke:none;fill:#000000;fill-opacity:0.24705882"
         d="m 295.5893,694.7713 c -4.1452,-15.881 15.2985,-44.3868 23.1058,-50.9261"
         id="path199"
         inkscape:connector-curvature="0" />
      <path
         style="stroke:none;fill:#000000;fill-opacity:0.24705882"
         d="m 318.6951,643.8452 c -7.6031,-5.6384 -20.3166,-15.7943 -22.1577,-10.6543"
         id="path201"
         inkscape:connector-curvature="0" />
      <path
         style="stroke:none;fill:#000000;fill-opacity:0.24705882"
         d="m 621.9462,740.5945 c -2.0362,-6.4406 22.4851,2.7129 38.9479,8.9046"
         id="path203"
         inkscape:connector-curvature="0" />
      <path
         style="stroke:none;fill:#000000;fill-opacity:0.24705882"
         d="M 660.8941,749.4991 C 647.5927,726.7107 608.3602,674.6922 602.6978,667.0854"
         id="path205"
         inkscape:connector-curvature="0" />
      <path
         style="stroke:none;fill:#000000;fill-opacity:0.24705882"
         d="M 602.6978,667.0854 C 590.7827,653.8282 546.2914,646.3069 548.6951,643.8452"
         id="path207"
         inkscape:connector-curvature="0" />
      <path
         style="stroke:none;fill:#000000;fill-opacity:0.24705882"
         d="m 548.6951,643.8452 c -14.7939,-2.5055 -23.4854,-20.0375 -22.1577,-10.6543"
         id="path209"
         inkscape:connector-curvature="0" />
      <path
         style="stroke:none;fill:#000000;fill-opacity:0.24705882"
         d="m 526.5374,633.1909 c -0.8479,5.3335 -8.1883,43.9306 -0.9481,61.5804"
         id="path211"
         inkscape:connector-curvature="0" />
      <path
         style="stroke:none;fill:#000000;fill-opacity:0.24705882"
         d="m 525.5893,694.7713 c 13.3872,4.3752 98.0353,63.5124 118.7909,77.0714"
         id="path213"
         inkscape:connector-curvature="0" />
      <path
         style="stroke:none;fill:#000000;fill-opacity:0.24705882"
         d="m 644.3802,771.8427 c -12.5516,3.4749 -29.0693,16.2986 -31.6244,29.13"
         id="path215"
         inkscape:connector-curvature="0" />
      <path
         style="stroke:none;fill:#000000;fill-opacity:0.24705882"
         d="m 612.7558,800.9727 c -0.079,-10.4322 32.6723,-33.4283 49.6656,-38.3596"
         id="path217"
         inkscape:connector-curvature="0" />
      <path
         style="stroke:none;fill:#000000;fill-opacity:0.24705882"
         d="m 662.4214,762.6131 c -31.0372,0.5468 -113.2507,36.1394 -133.7954,45.2797"
         id="path219"
         inkscape:connector-curvature="0" />
      <path
         style="stroke:none;fill:#000000;fill-opacity:0.24705882"
         d="m 528.626,807.8928 c -8.4912,-9.7553 7.57,-26.4983 11.0468,-18.7495"
         id="path221"
         inkscape:connector-curvature="0" />
      <path
         style="stroke:none;fill:#000000;fill-opacity:0.24705882"
         d="m 539.6728,789.1433 c -6.4215,-9.9863 -9.9414,4.6764 -9.652,9.5113"
         id="path223"
         inkscape:connector-curvature="0" />
      <path
         style="stroke:none;fill:#000000;fill-opacity:0.24705882"
         d="m 755.5893,694.7713 c -0.5528,-12.0272 -0.0648,-62.7716 0.9481,-61.5804"
         id="path225"
         inkscape:connector-curvature="0" />
      <path
         style="stroke:none;fill:#000000;fill-opacity:0.24705882"
         d="m 756.5374,633.1909 c 3.3081,-2.9547 10.7208,0.2633 22.1577,10.6543"
         id="path227"
         inkscape:connector-curvature="0" />
      <path
         style="stroke:none;fill:#000000;fill-opacity:0.24705882"
         d="m 778.6951,643.8452 c 6.3175,2.5926 38.1065,11.4933 54.0027,23.2402"
         id="path229"
         inkscape:connector-curvature="0" />
      <path
         style="stroke:none;fill:#000000;fill-opacity:0.24705882"
         d="m 832.6978,667.0854 c -18.6501,8.8801 -61.549,98.4752 -63.025,122.0579"
         id="path231"
         inkscape:connector-curvature="0" />
      <path
         style="stroke:none;fill:#000000;fill-opacity:0.24705882"
         d="m 769.6728,789.1433 c -2.8493,-1.5502 -15.4809,-1.8155 -9.652,9.5113"
         id="path233"
         inkscape:connector-curvature="0" />
      <path
         style="stroke:none;fill:#000000;fill-opacity:0.24705882"
         d="m 760.0208,798.6546 c 17.3599,-14.3907 87.34,-33.4821 114.3594,-26.8119"
         id="path235"
         inkscape:connector-curvature="0" />
      <path
         style="stroke:none;fill:#000000;fill-opacity:0.24705882"
         d="m 874.3802,771.8427 c -6.5207,-4.3938 -34.812,21.8995 -31.6244,29.13"
         id="path237"
         inkscape:connector-curvature="0" />
      <path
         style="stroke:none;fill:#000000;fill-opacity:0.24705882"
         d="m 842.7558,800.9727 c -20.1817,-6.8005 -79.7161,0.8847 -84.1298,6.9201"
         id="path239"
         inkscape:connector-curvature="0" />
      <path
         style="stroke:none;fill:#000000;fill-opacity:0.24705882"
         d="m 758.626,807.8928 c 7.0705,-17.1719 73.9264,-65.2182 93.3202,-67.2983"
         id="path241"
         inkscape:connector-curvature="0" />
      <path
         style="stroke:none;fill:#000000;fill-opacity:0.24705882"
         d="m 851.9462,740.5945 c 3.5948,-7.8396 23.8897,3.5288 38.9479,8.9046"
         id="path243"
         inkscape:connector-curvature="0" />
      <path
         style="stroke:none;fill:#000000;fill-opacity:0.24705882"
         d="m 890.8941,749.4991 c -8.1413,1.0361 -10.1861,9.0827 1.5273,13.114"
         id="path245"
         inkscape:connector-curvature="0" />
      <path
         style="stroke:none;fill:#000000;fill-opacity:0.24705882"
         d="m 986.5374,633.1909 c -0.9924,1.5714 10.4337,6.6317 22.1577,10.6543"
         id="path247"
         inkscape:connector-curvature="0" />
      <path
         style="stroke:none;fill:#000000;fill-opacity:0.24705882"
         d="m 1008.6951,643.8452 c -12.5376,3.3349 -22.6005,40.406 -23.1058,50.9261"
         id="path249"
         inkscape:connector-curvature="0" />
      <path
         style="stroke:none;fill:#000000;fill-opacity:0.24705882"
         d="m 985.5893,694.7713 c -6.5739,11.1086 -2.8132,94.0588 3.0367,113.1215"
         id="path251"
         inkscape:connector-curvature="0" />
      <path
         style="stroke:none;fill:#000000;fill-opacity:0.24705882"
         d="m 988.626,807.8928 c -4.3518,-10.1239 -2.6178,-14.7154 1.3948,-9.2382"
         id="path253"
         inkscape:connector-curvature="0" />
      <path
         style="stroke:none;fill:#000000;fill-opacity:0.24705882"
         d="m 990.0208,798.6546 c -1.4769,-7.038 -1.2783,-16.1863 9.652,-9.5113"
         id="path255"
         inkscape:connector-curvature="0" />
      <path
         style="stroke:none;fill:#000000;fill-opacity:0.24705882"
         d="m 999.6728,789.1433 c 8.7131,-4.6333 85.1865,-22.1661 104.7073,-17.3006"
         id="path257"
         inkscape:connector-curvature="0" />
      <path
         style="stroke:none;fill:#000000;fill-opacity:0.24705882"
         d="m 1104.3801,771.8427 c -9.8659,-8.2456 -24.6059,-26.4079 -22.4339,-31.2482"
         id="path259"
         inkscape:connector-curvature="0" />
      <path
         style="stroke:none;fill:#000000;fill-opacity:0.24705882"
         d="m 1081.9462,740.5945 c -12.0255,8.7298 -14.0258,43.7405 -9.1903,60.3782"
         id="path261"
         inkscape:connector-curvature="0" />
      <path
         style="stroke:none;fill:#000000;fill-opacity:0.24705882"
         d="m 1072.7559,800.9727 c 2.3881,-14.3451 39.7385,-38.0732 49.6656,-38.3596"
         id="path263"
         inkscape:connector-curvature="0" />
      <path
         style="stroke:none;fill:#000000;fill-opacity:0.24705882"
         d="m 1122.4215,762.6131 c -0.8426,-8.5925 -9.0638,-15.2766 -1.5275,-13.114"
         id="path265"
         inkscape:connector-curvature="0" />
      <path
         style="stroke:none;fill:#000000;fill-opacity:0.24705882"
         d="m 1120.894,749.4991 c -15.8906,-17.5126 -57.486,-77.8601 -58.1962,-82.4137"
         id="path267"
         inkscape:connector-curvature="0" />
    </g>
  </g>
</svg>
